<?xml version="1.0" standalone="no"?>
<!DOCTYPE svg PUBLIC "-//W3C//DTD SVG 20010904//EN" "http://www.w3.org/TR/2001/REC-SVG-20010904/DTD/svg10.dtd">
<svg version="1.0" xmlns="http://www.w3.org/2000/svg"
    width="940.000000pt" height="940.000000pt" viewBox="0 0 940.000000 940.000000"
    preserveAspectRatio="xMidYMid meet" fill="currentColor">

    <g transform="translate(0.000000,940.000000) scale(0.100000,-0.100000)"
    >
        <path
            d="M0 8062 l0 -1338 107 -13 c127 -14 155 -20 148 -31 -3 -5 13 -21 35
-37 22 -15 40 -34 40 -40 0 -7 4 -13 10 -13 5 0 7 7 4 15 -4 8 -1 15 5 15 14
0 15 -37 1 -45 -13 -8 -13 -45 0 -45 6 0 10 6 11 13 1 6 6 -4 13 -23 10 -30
28 -71 77 -175 15 -32 82 -149 104 -181 10 -16 43 -52 72 -80 29 -28 53 -55
53 -59 0 -4 8 -15 18 -24 16 -15 36 -48 70 -116 13 -26 97 -115 108 -115 8 0
-17 44 -40 70 -20 23 -19 23 16 -3 24 -18 35 -22 32 -12 -7 17 21 22 31 5 10
-17 93 -52 104 -45 6 3 19 2 28 -3 10 -5 31 -12 47 -16 24 -6 27 -4 22 9 -3 9
-2 13 3 10 5 -3 12 -1 15 4 3 5 -5 12 -18 15 -25 6 -56 55 -56 88 0 22 0 22
36 3 16 -8 36 -15 45 -15 9 0 22 -7 29 -15 12 -14 50 -21 50 -9 0 3 -10 20
-22 37 -18 25 -19 29 -5 24 25 -10 21 16 -5 33 -13 8 -29 13 -35 12 -7 -2 -13
4 -13 13 0 8 -9 24 -20 35 -28 28 -25 36 12 44 20 4 37 1 47 -8 9 -7 24 -12
34 -11 15 3 17 -3 12 -50 -4 -45 -2 -54 14 -58 13 -3 20 -20 28 -68 6 -36 7
-68 2 -73 -5 -5 -1 -15 8 -22 14 -9 15 -16 6 -35 -5 -13 -8 -40 -4 -59 l5 -35
6 39 c6 44 24 58 33 25 4 -14 11 -20 21 -16 9 4 16 1 17 -6 0 -7 4 -3 9 8 4
11 6 31 4 45 -2 14 -1 18 2 10 4 -8 13 -29 21 -47 8 -18 11 -38 7 -45 -4 -7
-4 -10 1 -6 4 4 27 -34 52 -85 24 -51 49 -93 54 -95 5 -2 9 -9 9 -17 0 -7 13
-18 30 -25 16 -7 27 -16 24 -21 -3 -5 5 -9 16 -9 19 0 21 -4 16 -25 -5 -20 0
-32 24 -55 17 -17 34 -30 38 -30 4 0 13 -15 21 -32 8 -18 22 -44 32 -56 14
-18 17 -37 15 -82 -3 -47 -1 -58 10 -53 8 3 14 16 14 29 0 14 6 24 14 24 36 0
39 122 5 196 -12 27 -36 62 -53 78 -29 28 -30 30 -11 35 11 3 20 14 21 24 2
55 4 62 13 48 5 -8 7 13 4 53 -4 42 -2 66 4 66 6 0 13 -8 16 -19 5 -22 50 -32
88 -19 31 11 59 47 59 78 0 11 5 20 10 20 6 0 10 7 10 16 0 9 9 18 21 21 14 4
17 8 8 13 -8 6 -2 18 22 41 20 20 29 34 21 37 -15 5 -16 32 -1 32 7 0 9 16 5
45 -6 39 -4 46 18 60 14 9 30 14 36 10 5 -3 10 0 10 9 0 9 14 17 38 21 35 6
112 64 112 84 0 6 9 13 20 16 11 3 20 10 20 15 0 5 9 12 20 15 11 3 20 13 20
21 0 8 5 14 11 14 8 0 8 4 -1 14 -12 15 -6 18 90 30 19 2 89 14 155 25 144 25
155 26 155 6 0 -13 -7 -15 -37 -9 l-38 7 22 -19 c63 -55 62 -55 71 -37 8 14
13 14 41 2 32 -14 38 -24 21 -34 -13 -8 -13 -25 1 -25 5 0 8 4 4 9 -9 15 13
23 46 16 34 -8 33 -13 -1 -20 -27 -5 -36 -12 -27 -22 4 -3 22 -2 41 4 27 8 33
8 30 -2 -10 -24 18 -27 42 -4 l24 22 0 -29 c0 -23 2 -26 11 -14 8 11 12 12 16
3 2 -7 10 -13 16 -13 7 0 13 -13 14 -30 0 -16 2 -46 3 -65 3 -50 -15 -68 -62
-62 -21 3 -36 1 -32 -4 3 -5 15 -9 27 -9 12 0 29 -5 37 -10 28 -19 -15 -39
-81 -37 -32 1 -59 -1 -59 -5 0 -5 -13 -8 -29 -8 -42 0 -47 -17 -9 -28 47 -14
118 -14 136 1 13 10 15 9 10 -9 -3 -12 -2 -28 3 -35 7 -11 9 -10 9 4 0 9 7 17
15 17 8 0 15 -6 15 -14 0 -7 9 -16 20 -19 11 -3 20 -12 20 -20 0 -16 71 -30
80 -16 12 17 54 -18 69 -59 18 -46 31 -46 31 -1 0 15 4 31 10 34 6 4 10 -6 10
-24 0 -35 42 -75 48 -46 5 20 27 13 26 -8 -1 -9 4 -13 13 -10 11 4 13 0 7 -21
-4 -18 -2 -27 9 -32 14 -5 35 -108 28 -143 -1 -7 1 -20 5 -30 5 -11 12 0 24
39 l17 55 -4 -100 c-3 -72 -2 -96 6 -85 6 8 11 41 11 73 0 38 5 64 15 73 17
17 17 16 19 -46 1 -25 -3 -48 -9 -52 -6 -5 -5 -12 3 -20 9 -9 12 -9 12 5 0 23
20 22 20 0 1 -17 1 -17 14 0 7 9 18 17 25 17 6 0 11 7 11 15 0 9 6 12 15 9 8
-4 15 -14 15 -24 0 -11 4 -22 10 -25 6 -3 10 -15 10 -25 0 -10 4 -21 8 -24 5
-3 7 18 4 46 -4 44 -3 50 11 45 23 -9 32 12 12 27 -19 14 -13 58 8 55 30 -4
46 2 50 19 4 16 5 16 6 0 0 -10 5 -18 10 -18 5 0 9 -12 9 -27 0 -14 8 -33 18
-40 17 -12 20 -11 25 9 6 22 6 22 14 -4 4 -16 14 -28 22 -28 11 0 13 5 8 18
-19 45 -15 54 9 20 31 -44 39 -48 30 -13 -7 28 7 33 27 9 27 -32 38 -82 26
-120 -8 -26 -7 -44 2 -70 16 -44 8 -67 -27 -81 l-27 -11 27 -1 c24 -1 29 -7
39 -47 9 -33 14 -42 21 -32 7 9 8 7 5 -9 -3 -13 -1 -26 4 -29 5 -3 9 -16 9
-30 0 -14 11 -45 25 -70 14 -25 25 -55 25 -67 0 -12 11 -41 24 -63 21 -37 22
-48 15 -95 -5 -30 -7 -71 -3 -91 3 -20 1 -45 -5 -56 -6 -11 -13 -34 -16 -53
-3 -19 -10 -38 -16 -43 -5 -6 -9 -20 -9 -33 0 -13 -4 -23 -10 -23 -5 0 -16
-13 -24 -28 -8 -16 -31 -41 -50 -56 -40 -30 -124 -50 -144 -34 -9 8 -17 7 -30
-4 -26 -23 -46 -33 -38 -20 8 13 -90 18 -239 13 -71 -2 -82 -5 -98 -27 -10
-13 -25 -24 -33 -24 -8 0 -19 -10 -24 -23 -7 -17 -9 -18 -9 -4 -1 16 -4 16
-31 -5 -17 -12 -30 -30 -30 -41 0 -10 -5 -28 -11 -40 -17 -32 -71 -87 -86 -87
-8 0 -25 -7 -38 -16 -13 -9 -29 -13 -35 -9 -5 3 -10 1 -10 -4 0 -6 9 -11 21
-11 32 0 13 -17 -20 -18 -34 -1 -101 -62 -101 -91 0 -30 -51 -76 -100 -90 -25
-7 -56 -19 -70 -27 -14 -7 -40 -21 -57 -29 -18 -8 -33 -22 -33 -30 0 -20 -87
-75 -117 -75 -13 0 -23 -4 -23 -9 0 -9 -34 -25 -55 -26 -5 0 -32 -16 -59 -34
-29 -20 -64 -35 -83 -36 -19 -1 -39 -7 -46 -14 -16 -16 -34 -14 -42 7 -6 15
-10 13 -34 -16 -20 -23 -33 -31 -46 -26 -12 5 -16 3 -13 -6 2 -7 32 -24 66
-38 60 -25 67 -25 150 -15 48 6 119 22 157 36 81 28 178 69 185 78 3 3 23 12
45 19 22 7 83 32 135 55 92 42 150 55 358 82 113 15 184 -54 356 -342 36 -60
69 -114 73 -120 4 -5 18 -30 29 -55 43 -91 68 -109 257 -184 l37 -15 0 -78 c0
-66 -12 -159 -56 -423 -6 -35 -9 -40 -15 -25 -6 15 -8 16 -8 4 -1 -13 -9 -14
-58 -8 -239 33 -463 42 -463 19 0 -13 24 -27 55 -33 17 -3 62 -12 100 -21 39
-9 111 -23 160 -30 50 -8 103 -19 118 -25 16 -6 33 -8 39 -5 5 3 18 -3 28 -14
17 -18 18 -32 13 -148 -3 -71 -10 -138 -16 -149 -14 -27 -145 -205 -173 -235
-13 -14 -51 -55 -85 -92 -71 -77 -163 -142 -275 -193 -76 -35 -126 -71 -145
-107 -12 -21 33 -98 57 -98 28 0 79 -32 124 -79 25 -25 96 -91 159 -146 63
-55 127 -118 143 -140 16 -22 51 -62 77 -90 130 -138 193 -259 251 -488 22
-87 40 -175 40 -196 0 -21 3 -53 6 -70 l6 -31 2179 0 c2172 0 2179 0 2179 20
0 15 -7 20 -25 20 -16 0 -25 -6 -25 -16 0 -13 -7 -15 -37 -9 -46 8 -52 13 -33
26 10 5 11 12 5 17 -28 21 -47 76 -42 121 4 34 0 59 -13 89 -21 47 -44 75 -54
65 -3 -4 -6 1 -6 10 0 10 5 17 10 17 15 0 12 36 -5 50 -10 8 -15 30 -15 61 0
50 -19 129 -31 129 -4 0 -5 9 -2 20 3 11 0 27 -8 36 -7 9 -12 38 -11 73 1 45
-4 69 -23 105 -30 56 -32 86 -7 86 14 0 22 20 42 100 l24 101 50 -2 c28 -1 65
1 81 5 23 5 25 4 10 -3 l-20 -10 20 -1 c14 -2 11 -5 -10 -10 -30 -8 -30 -8 -3
-9 48 -2 58 -11 58 -51 0 -21 6 -41 12 -44 9 -3 8 -8 -4 -16 -22 -14 -24 -84
-3 -120 8 -14 14 -42 15 -62 0 -27 4 -38 15 -38 12 0 15 -16 15 -80 0 -79 0
-80 -25 -80 -15 0 -25 -6 -25 -15 0 -24 23 -65 36 -65 18 0 64 -47 64 -65 0
-11 12 -15 40 -15 l40 0 0 -40 c0 -29 4 -40 15 -40 11 0 15 -11 15 -40 0 -29
-4 -40 -15 -40 -11 0 -15 11 -15 40 l0 40 -40 0 -40 0 0 -40 0 -40 -40 0 -40
0 0 -40 c0 -22 -4 -40 -10 -40 -5 0 -10 -22 -10 -50 0 -27 5 -50 10 -50 6 0
10 14 10 30 0 28 2 30 40 30 33 0 40 3 40 20 0 17 7 20 40 20 l40 0 0 -40 c0
-36 -2 -40 -25 -40 -22 0 -25 -4 -25 -40 l0 -40 80 0 c73 0 80 -2 80 -20 0
-20 7 -20 365 -20 l365 0 0 4700 0 4700 -1265 0 -1265 0 0 -40 c0 -33 3 -40
20 -40 19 0 20 -7 20 -118 0 -88 -4 -123 -15 -138 -8 -10 -15 -28 -15 -39 0
-11 -7 -31 -15 -45 l-15 -25 -6 23 c-12 43 -24 21 -24 -45 0 -77 -5 -87 -42
-96 -22 -6 -25 -4 -21 12 7 26 -14 86 -34 103 -15 11 -16 11 -9 -7 5 -11 10
-40 13 -65 4 -42 3 -44 -11 -26 -15 19 -16 18 -25 -5 -5 -13 -10 -18 -10 -11
-1 8 -7 28 -15 45 -8 18 -20 49 -26 70 -10 33 -40 53 -40 27 0 -22 -19 -8 -34
25 -9 19 -22 35 -29 35 -7 0 -23 16 -37 35 -29 40 -45 44 -53 14 -8 -30 2 -49
31 -60 14 -5 22 -12 19 -16 -9 -8 38 -43 57 -43 9 0 16 -4 16 -10 0 -5 6 -10
14 -10 18 0 30 -30 16 -44 -7 -7 -10 -5 -10 5 0 9 -9 24 -20 34 -26 24 -26 11
1 -26 16 -23 18 -33 10 -43 -9 -11 -8 -18 4 -29 17 -18 21 -77 4 -77 -5 0 -8
-4 -4 -9 3 -5 1 -12 -5 -16 -5 -3 -10 -1 -10 4 0 6 -7 11 -16 11 -11 0 -13 6
-9 19 3 11 1 22 -5 26 -6 4 -9 12 -7 19 3 7 -4 23 -15 37 -19 23 -19 17 -2
-25 3 -7 -2 -16 -12 -20 -12 -4 -15 -2 -10 9 3 9 0 15 -10 15 -11 0 -13 -6 -9
-19 10 -31 -14 -35 -26 -4 -5 15 -15 34 -22 42 -6 7 -12 19 -12 25 -2 23 -25
65 -41 74 -21 12 -9 36 15 29 10 -2 18 1 18 8 0 7 -8 10 -19 7 -10 -2 -18 -2
-18 1 0 2 9 7 20 10 14 3 30 -4 49 -24 32 -32 51 -37 51 -14 0 15 -38 55 -52
55 -8 0 -38 60 -38 75 0 3 9 5 20 5 24 0 28 41 5 60 -8 7 -15 20 -15 29 0 14
-2 14 -11 1 -9 -12 -10 -12 -5 4 4 11 1 23 -6 28 -9 5 -6 8 10 8 12 0 22 -4
22 -10 0 -5 7 -10 15 -10 8 0 15 7 15 15 0 8 -7 15 -16 15 -10 0 -14 6 -11 15
4 8 2 17 -3 20 -4 3 -11 -1 -13 -7 -3 -7 -6 -3 -6 10 -1 27 -25 59 -75 100
-22 18 -2466 18 -2485 0 -11 -11 -13 -10 -7 0 6 10 -77 12 -421 10 -235 -2
-437 -7 -447 -12 -14 -7 -17 -6 -12 3 10 16 -416 14 -426 -3 -6 -8 -8 -7 -8 2
0 9 -29 12 -110 12 -101 0 -110 -2 -110 -19 0 -20 -27 -48 -36 -38 -3 3 -1 14
5 25 6 12 11 23 11 26 0 3 -513 6 -1140 6 l-1140 0 0 -1338z m2480 1318 c0 -5
-5 -10 -11 -10 -5 0 -7 5 -4 10 3 6 8 10 11 10 2 0 4 -4 4 -10z m390 5 c0 -5
-129 -65 -139 -65 -8 1 121 69 132 70 4 0 7 -2 7 -5z m447 -1 c-3 -3 -12 -4
-19 -1 -8 3 -5 6 6 6 11 1 17 -2 13 -5z m2840 -16 c-3 -8 -6 -5 -6 6 -1 11 2
17 5 13 3 -3 4 -12 1 -19z m143 2 c0 -5 -5 -10 -11 -10 -5 0 -7 5 -4 10 3 6 8
10 11 10 2 0 4 -4 4 -10z m-3540 -5 c0 -2 -9 -9 -20 -15 -12 -6 -20 -7 -20 -1
0 5 8 12 18 14 9 3 18 5 20 6 1 0 2 -1 2 -4z m225 -5 c-3 -5 -11 -10 -16 -10
-6 0 -7 5 -4 10 3 6 11 10 16 10 6 0 7 -4 4 -10z m-479 -76 c-15 -47 -19 -34
-10 28 6 42 9 48 14 28 3 -13 1 -39 -4 -56z m3109 66 c3 -5 1 -10 -4 -10 -6 0
-11 5 -11 10 0 6 2 10 4 10 3 0 8 -4 11 -10z m-708 -16 c-3 -3 -12 -4 -19 -1
-8 3 -5 6 6 6 11 1 17 -2 13 -5z m526 -1 c-7 -2 -21 -2 -30 0 -10 3 -4 5 12 5
17 0 24 -2 18 -5z m-1628 -36 c-4 -15 -14 -32 -23 -39 -8 -7 -13 -8 -10 -3 2
6 11 24 18 42 16 37 24 37 15 0z m1788 26 c-7 -2 -19 -2 -25 0 -7 3 -2 5 12 5
14 0 19 -2 13 -5z m-2939 -21 c-34 -32 -75 -56 -69 -41 3 8 22 24 43 36 46 27
51 28 26 5z m3660 -13 c-9 -15 -34 -10 -55 10 -21 19 -21 19 20 9 22 -6 38
-14 35 -19z m62 17 c19 -20 18 -26 -6 -26 -11 0 -20 6 -20 14 0 8 -6 17 -12
19 -8 3 -5 6 5 6 10 1 25 -5 33 -13z m-871 -16 c3 -5 -1 -10 -9 -10 -8 0 -18
5 -21 10 -3 6 1 10 9 10 8 0 18 -4 21 -10z m-3310 -10 c-3 -5 -14 -10 -23 -10
-15 0 -15 2 -2 10 20 13 33 13 25 0z m4049 -5 c-4 -8 -1 -15 5 -15 6 0 11 -8
11 -17 0 -15 -3 -14 -22 5 -20 19 -21 24 -8 32 20 13 20 13 14 -5z m-3964 -30
c0 -8 -4 -15 -10 -15 -5 0 -10 7 -10 15 0 8 5 15 10 15 6 0 10 -7 10 -15z
m370 10 c0 -2 -10 -9 -22 -15 -22 -11 -22 -10 -4 4 21 17 26 19 26 11z m3000
-51 l25 -15 -25 7 c-14 3 -29 10 -34 15 -16 14 6 10 34 -7z m635 -14 c3 -11
17 -28 31 -39 25 -20 32 -41 13 -41 -6 0 -8 -7 -5 -16 3 -9 2 -12 -5 -9 -5 4
-7 15 -4 25 5 16 -12 43 -33 52 -14 5 -25 48 -13 48 5 0 12 -9 16 -20z m103
-16 c14 -15 14 -16 -3 -13 -10 2 -20 10 -23 17 -5 17 6 15 26 -4z m-3896 -16
c-7 -7 -12 -8 -12 -2 0 14 12 26 19 19 2 -3 -1 -11 -7 -17z m-242 6 c0 -8 -19
-13 -24 -6 -3 5 1 9 9 9 8 0 15 -2 15 -3z m-1221 -60 c24 -41 12 -37 -19 6
-12 17 -17 30 -12 30 6 0 19 -16 31 -36z m5236 16 c10 -11 14 -20 8 -20 -5 0
-18 9 -28 20 -10 11 -14 20 -8 20 5 0 18 -9 28 -20z m-4872 -27 c-7 -2 -19 -2
-25 0 -7 3 -2 5 12 5 14 0 19 -2 13 -5z m4923 -38 c10 -8 15 -14 9 -14 -5 0
-19 6 -29 14 -11 8 -15 15 -10 15 6 0 19 -7 30 -15z m68 0 c11 -8 18 -17 15
-19 -2 -3 -15 4 -29 14 -14 11 -20 20 -15 19 6 0 19 -6 29 -14z m-94 -40 c7
-8 8 -15 2 -15 -5 0 -15 7 -22 15 -7 8 -8 15 -2 15 5 0 15 -7 22 -15z m-56
-30 c3 -8 1 -15 -4 -15 -6 0 -10 7 -10 15 0 8 2 15 4 15 2 0 6 -7 10 -15z m86
-5 c0 -5 7 -10 15 -10 8 0 15 -6 16 -12 1 -7 2 -30 3 -50 2 -20 9 -44 16 -53
10 -12 10 -15 -2 -15 -10 0 -18 14 -22 40 -3 22 -11 40 -16 40 -6 0 -10 10
-10 23 0 13 -5 28 -12 35 -9 9 -9 12 0 12 7 0 12 -4 12 -10z m-1270 -100 c0
-5 -7 -10 -15 -10 -8 0 -15 5 -15 10 0 6 7 10 15 10 8 0 15 -4 15 -10z m37 4
c-3 -3 -12 -4 -19 -1 -8 3 -5 6 6 6 11 1 17 -2 13 -5z m1083 -14 c0 -5 -4 -10
-10 -10 -5 0 -10 5 -10 10 0 6 5 10 10 10 6 0 10 -4 10 -10z m440 -6 c0 -8 -4
-12 -10 -9 -5 3 -10 10 -10 16 0 5 5 9 10 9 6 0 10 -7 10 -16z m-1111 -84 c0
-9 -4 -8 -9 5 -5 11 -9 27 -9 35 0 9 4 8 9 -5 5 -11 9 -27 9 -35z m-806 8 c6
-22 5 -22 -8 -4 -17 22 -20 40 -6 32 5 -3 11 -16 14 -28z m1971 -10 c3 -18 7
-51 9 -72 3 -37 2 -38 -11 -18 -15 23 -24 122 -11 122 4 0 10 -15 13 -32z m46
12 c0 -5 -4 -10 -10 -10 -5 0 -10 5 -10 10 0 6 5 10 10 10 6 0 10 -4 10 -10z
m-1190 -63 c0 -18 -2 -19 -10 -7 -13 20 -13 43 0 35 6 -3 10 -16 10 -28z
m1102 -45 c8 -9 7 -11 -3 -7 -8 3 -20 15 -28 27 -11 17 -11 22 1 29 9 6 14 2
16 -14 2 -12 9 -28 14 -35z m135 -4 c-3 -7 -5 -2 -5 12 0 14 2 19 5 13 2 -7 2
-19 0 -25z m-2798 -63 c0 -5 -6 -1 -14 9 -8 11 -15 24 -15 30 0 5 7 1 15 -10
8 -10 14 -23 14 -29z m2611 11 c0 -5 -7 -3 -15 4 -8 7 -12 17 -9 22 7 10 24
-9 24 -26z m75 24 c-3 -5 -13 -10 -21 -10 -8 0 -14 5 -14 10 0 6 9 10 21 10
11 0 17 -4 14 -10z m55 -30 c0 -5 -4 -10 -10 -10 -5 0 -10 5 -10 10 0 6 5 10
10 10 6 0 10 -4 10 -10z m-1572 -41 c-3 -8 -7 -3 -11 10 -4 17 -3 21 5 13 5
-5 8 -16 6 -23z m299 -1 c-3 -8 -6 -5 -6 6 -1 11 2 17 5 13 3 -3 4 -12 1 -19z
m983 -48 c0 -13 -1 -13 -10 0 -5 8 -10 22 -10 30 0 13 1 13 10 0 5 -8 10 -22
10 -30z m244 -14 c-6 -15 -34 -11 -34 6 0 5 5 6 10 3 7 -4 9 3 4 22 -6 28 -6
28 10 6 9 -12 13 -28 10 -37z m-6177 18 c-3 -3 -12 -4 -19 -1 -8 3 -5 6 6 6
11 1 17 -2 13 -5z m4287 -30 c5 -14 4 -15 -9 -4 -17 14 -19 20 -6 20 5 0 12
-7 15 -16z m620 -63 c-6 -7 -33 32 -34 49 0 8 9 2 20 -15 10 -16 17 -31 14
-34z m1283 26 c7 -5 10 -14 7 -19 -6 -10 -44 19 -44 34 0 9 14 4 37 -15z m-37
-37 c0 -5 -4 -10 -10 -10 -5 0 -10 5 -10 10 0 6 5 10 10 10 6 0 10 -4 10 -10z
m-290 -4 c0 -3 -4 -8 -10 -11 -5 -3 -10 -1 -10 4 0 6 5 11 10 11 6 0 10 -2 10
-4z m-723 -28 c-3 -8 -6 -5 -6 6 -1 11 2 17 5 13 3 -3 4 -12 1 -19z m1073 -14
c0 -8 -5 -12 -10 -9 -6 4 -8 11 -5 16 9 14 15 11 15 -7z m-1460 -4 c0 -5 -2
-10 -4 -10 -3 0 -8 5 -11 10 -3 6 -1 10 4 10 6 0 11 -4 11 -10z m305 -10 c3
-5 1 -10 -4 -10 -6 0 -11 5 -11 10 0 6 2 10 4 10 3 0 8 -4 11 -10z m105 -25
c0 -5 -5 -3 -10 5 -5 8 -10 20 -10 25 0 6 5 3 10 -5 5 -8 10 -19 10 -25z m917
3 c-3 -7 -5 -2 -5 12 0 14 2 19 5 13 2 -7 2 -19 0 -25z m-1007 -28 c0 -5 -4
-10 -10 -10 -5 0 -10 5 -10 10 0 6 5 10 10 10 6 0 10 -4 10 -10z m-313 -72
c-3 -7 -5 -2 -5 12 0 14 2 19 5 13 2 -7 2 -19 0 -25z m312 -25 l-2 -48 -6 40
c-7 38 -5 55 5 55 2 0 3 -21 3 -47z m821 27 c0 -5 -7 -10 -15 -10 -8 0 -15 5
-15 10 0 6 7 10 15 10 8 0 15 -4 15 -10z m307 -12 c-3 -8 -6 -5 -6 6 -1 11 2
17 5 13 3 -3 4 -12 1 -19z m-982 -18 c-6 -26 -4 -29 12 -24 15 5 15 4 3 -5
-11 -8 -11 -11 -2 -11 7 0 12 -6 11 -12 -7 -36 65 -204 103 -241 12 -12 18
-32 18 -60 0 -30 -3 -38 -10 -27 -5 8 -15 15 -22 15 -7 0 -13 7 -13 15 0 8 -2
17 -5 20 -8 8 -46 110 -70 190 -13 41 -29 94 -36 118 -7 23 -9 40 -4 37 6 -4
10 -1 10 4 0 6 3 11 6 11 3 0 3 -13 -1 -30z m1035 9 c0 -5 -4 -9 -10 -9 -5 0
-10 7 -10 16 0 8 5 12 10 9 6 -3 10 -10 10 -16z m-640 -20 c0 -6 -4 -7 -10 -4
-5 3 -10 11 -10 16 0 6 5 7 10 4 6 -3 10 -11 10 -16z m-253 -41 c-3 -8 -6 -5
-6 6 -1 11 2 17 5 13 3 -3 4 -12 1 -19z m550 0 c-3 -8 -6 -5 -6 6 -1 11 2 17
5 13 3 -3 4 -12 1 -19z m-738 -38 c0 -9 -6 -4 -14 10 -19 33 -19 49 0 24 8
-10 14 -26 14 -34z m-209 9 c0 -6 -4 -7 -10 -4 -5 3 -10 11 -10 16 0 6 5 7 10
4 6 -3 10 -11 10 -16z m684 6 c3 -8 1 -15 -4 -15 -6 0 -10 7 -10 15 0 8 2 15
4 15 2 0 6 -7 10 -15z m230 -25 c-6 -5 -24 21 -24 34 0 6 6 1 14 -10 8 -10 12
-21 10 -24z m-154 -10 c0 -5 -2 -10 -4 -10 -3 0 -8 5 -11 10 -3 6 -1 10 4 10
6 0 11 -4 11 -10z m-145 -60 c3 -5 1 -10 -4 -10 -6 0 -11 5 -11 10 0 6 2 10 4
10 3 0 8 -4 11 -10z m-1227 -7 c-10 -2 -26 -2 -35 0 -10 3 -2 5 17 5 19 0 27
-2 18 -5z m1376 -8 c3 -8 1 -15 -4 -15 -6 0 -10 7 -10 15 0 8 2 15 4 15 2 0 6
-7 10 -15z m30 -11 c3 -8 2 -12 -4 -9 -6 3 -10 10 -10 16 0 14 7 11 14 -7z
m466 -44 c0 -5 -4 -10 -10 -10 -5 0 -10 5 -10 10 0 6 5 10 10 10 6 0 10 -4 10
-10z m-1410 -27 c-8 -3 -23 -12 -32 -21 -11 -9 -18 -11 -18 -4 0 13 29 32 50
31 13 -1 13 -1 0 -6z m980 -13 c0 -5 -4 -10 -10 -10 -5 0 -10 5 -10 10 0 6 5
10 10 10 6 0 10 -4 10 -10z m-1080 -55 c0 -8 -7 -15 -15 -15 -13 0 -14 3 -3
15 16 18 18 18 18 0z m50 -11 c0 -8 -5 -12 -10 -9 -6 4 -8 11 -5 16 9 14 15
11 15 -7z m1065 -5 c11 -17 -1 -21 -15 -4 -8 9 -8 15 -2 15 6 0 14 -5 17 -11z
m-541 -70 c-8 -13 -24 -1 -24 18 0 13 3 13 15 3 8 -7 12 -16 9 -21z m76 11 c0
-5 -4 -10 -10 -10 -5 0 -10 5 -10 10 0 6 5 10 10 10 6 0 10 -4 10 -10z m-49
-14 c-12 -15 -12 -16 23 -83 20 -39 20 -53 1 -53 -9 0 -15 9 -15 24 0 31 -18
78 -32 88 -13 7 7 38 24 38 6 0 6 -6 -1 -14z m-601 -34 c0 -7 -4 -10 -10 -7
-5 3 -10 16 -10 28 0 18 2 19 10 7 5 -8 10 -21 10 -28z m50 28 c0 -5 -4 -10
-10 -10 -5 0 -10 5 -10 10 0 6 5 10 10 10 6 0 10 -4 10 -10z m190 -24 c0 -2
-8 -10 -17 -17 -16 -13 -17 -12 -4 4 13 16 21 21 21 13z m435 -6 c3 -5 1 -10
-4 -10 -6 0 -11 5 -11 10 0 6 2 10 4 10 3 0 8 -4 11 -10z m-615 -10 c0 -5 -2
-10 -4 -10 -3 0 -8 5 -11 10 -3 6 -1 10 4 10 6 0 11 -4 11 -10z m65 -29 c-6
-5 -25 10 -25 20 0 5 6 4 14 -3 8 -7 12 -15 11 -17z m-69 -8 c-6 -6 -36 9 -36
18 0 5 9 4 20 -3 10 -7 18 -14 16 -15z m699 17 c3 -5 1 -10 -4 -10 -6 0 -11 5
-11 10 0 6 2 10 4 10 3 0 8 -4 11 -10z m15 -71 c0 -14 -17 -10 -23 5 -4 10 -1
13 9 9 7 -3 14 -9 14 -14z m-880 -15 c0 -8 -5 -12 -10 -9 -6 4 -8 11 -5 16 9
14 15 11 15 -7z m88 -3 c3 -8 -1 -12 -9 -9 -7 2 -15 10 -17 17 -3 8 1 12 9 9
7 -2 15 -10 17 -17z m-174 -17 c9 -24 2 -26 -12 -4 -7 11 -8 20 -3 20 5 0 12
-7 15 -16z m34 -9 c-3 -3 -9 2 -12 12 -6 14 -5 15 5 6 7 -7 10 -15 7 -18z
m912 21 c0 -3 -4 -8 -10 -11 -5 -3 -10 -1 -10 4 0 6 5 11 10 11 6 0 10 -2 10
-4z m-802 -31 c-3 -3 -9 2 -12 12 -6 14 -5 15 5 6 7 -7 10 -15 7 -18z m-48
-11 c0 -8 -4 -12 -10 -9 -5 3 -10 13 -10 21 0 8 5 12 10 9 6 -3 10 -13 10 -21z
m137 -20 c-3 -3 -12 -4 -19 -1 -8 3 -5 6 6 6 11 1 17 -2 13 -5z m758 -4 c-3
-5 -10 -10 -16 -10 -5 0 -9 5 -9 10 0 6 7 10 16 10 8 0 12 -4 9 -10z m-810
-30 c3 -5 1 -10 -4 -10 -6 0 -11 5 -11 10 0 6 2 10 4 10 3 0 8 -4 11 -10z
m759 -31 c15 -29 15 -33 -2 -45 -15 -11 -15 -17 -5 -44 10 -27 10 -30 -3 -19
-10 8 -14 29 -12 75 2 35 4 64 5 64 1 0 9 -14 17 -31z m66 17 c0 -11 -19 -15
-25 -6 -3 5 1 10 9 10 9 0 16 -2 16 -4z m174 -32 c3 -8 2 -12 -4 -9 -6 3 -10
10 -10 16 0 14 7 11 14 -7z m-1018 -20 c-4 -9 -1 -24 6 -33 11 -14 11 -14 -4
-3 -17 14 -21 52 -5 52 5 0 6 -7 3 -16z m-182 -51 c9 -18 14 -33 12 -33 -13 0
-36 34 -36 52 0 25 2 23 24 -19z m1246 -1 c0 -15 -2 -15 -10 -2 -13 20 -13 33
0 25 6 -3 10 -14 10 -23z m-1552 -7 c-3 -3 -9 2 -12 12 -6 14 -5 15 5 6 7 -7
10 -15 7 -18z m1541 -50 c0 -5 -6 1 -14 15 -8 14 -14 34 -14 45 0 13 5 8 14
-15 7 -19 14 -39 14 -45z m-995 49 c5 -14 4 -15 -9 -4 -17 14 -19 20 -6 20 5
0 12 -7 15 -16z m0 -53 c-6 -6 -24 19 -24 34 1 6 7 1 15 -9 8 -11 12 -22 9
-25z m1016 29 c0 -5 -2 -10 -4 -10 -3 0 -8 5 -11 10 -3 6 -1 10 4 10 6 0 11
-4 11 -10z m-123 -22 c-3 -8 -6 -5 -6 6 -1 11 2 17 5 13 3 -3 4 -12 1 -19z
m-1413 -4 c5 -14 4 -15 -9 -4 -17 14 -19 20 -6 20 5 0 12 -7 15 -16z m560 0
c10 -25 -1 -29 -14 -5 -6 12 -7 21 -1 21 5 0 12 -7 15 -16z m696 -24 c0 -5 -7
-10 -16 -10 -8 0 -12 5 -9 10 3 6 10 10 16 10 5 0 9 -4 9 -10z m284 -6 c3 -8
2 -12 -4 -9 -6 3 -10 10 -10 16 0 14 7 11 14 -7z m-99 -62 c-5 -5 -25 43 -25
61 1 7 7 -3 16 -22 8 -19 12 -36 9 -39z m-1545 28 c6 -11 8 -20 6 -20 -3 0
-10 9 -16 20 -6 11 -8 20 -6 20 3 0 10 -9 16 -20z m80 -54 c0 -5 -7 -1 -15 10
-8 10 -14 24 -14 29 0 6 6 1 14 -9 8 -11 15 -24 15 -30z m-45 -6 c3 -5 1 -10
-4 -10 -6 0 -11 5 -11 10 0 6 2 10 4 10 3 0 8 -4 11 -10z m653 -15 c-3 -3 -9
2 -12 12 -6 14 -5 15 5 6 7 -7 10 -15 7 -18z m-533 -115 c10 -11 16 -20 13
-20 -3 0 -13 9 -23 20 -10 11 -16 20 -13 20 3 0 13 -9 23 -20z m40 -50 c10
-11 16 -20 13 -20 -3 0 -13 9 -23 20 -10 11 -16 20 -13 20 3 0 13 -9 23 -20z
m125 -41 c0 -6 -4 -7 -10 -4 -5 3 -10 11 -10 16 0 6 5 7 10 4 6 -3 10 -11 10
-16z m401 -116 c13 -16 12 -17 -3 -4 -10 7 -18 15 -18 17 0 8 8 3 21 -13z
m-790 -90 c-12 -20 -14 -14 -5 12 4 9 9 14 11 11 3 -2 0 -13 -6 -23z m479
-174 c15 -28 5 -23 -15 7 -9 15 -12 23 -6 20 6 -4 16 -16 21 -27z m156 -370
c46 -57 182 -169 267 -219 48 -29 48 -38 0 -10 -82 46 -219 151 -250 192 -18
24 -42 55 -53 71 -41 52 -13 26 36 -34z m-86 -133 c0 -6 -7 -1 -15 10 -8 10
-15 23 -15 28 0 6 7 1 15 -10 8 -10 15 -23 15 -28z m-2170 3 c0 -5 -4 -9 -10
-9 -5 0 -10 7 -10 16 0 8 5 12 10 9 6 -3 10 -10 10 -16z m1732 -3 c25 -19 48
-124 48 -224 0 -87 -7 -140 -32 -242 -13 -55 -84 -222 -114 -270 -48 -77 -130
-140 -183 -140 -11 0 -32 -7 -48 -15 -96 -50 -150 -68 -208 -68 -125 1 -138 9
-129 74 2 19 5 49 6 67 1 31 3 32 34 26 25 -4 37 -1 53 15 12 12 19 26 16 31
-4 6 -2 10 4 10 5 0 15 16 21 36 7 19 19 38 29 42 9 3 34 23 55 44 22 20 43
35 47 32 4 -2 10 0 14 6 9 14 72 13 81 -2 4 -6 10 -25 13 -41 4 -17 13 -33 21
-35 12 -4 13 -2 3 9 -19 19 -16 32 16 86 36 58 51 135 51 262 1 67 5 102 15
115 15 20 35 14 35 -10 0 -9 5 -12 11 -8 7 4 9 21 5 43 -3 19 -3 53 1 75 6 38
6 38 19 15 13 -24 13 -24 14 9 0 21 9 42 24 57 24 24 46 25 78 1z m-3444 2
c16 -16 15 -25 -2 -31 -8 -3 -18 5 -25 19 -8 19 -8 24 2 24 7 0 18 -5 25 -12z
m5009 -30 c-3 -7 -5 -2 -5 12 0 14 2 19 5 13 2 -7 2 -19 0 -25z m-4777 -8 c0
-5 -2 -10 -4 -10 -3 0 -8 5 -11 10 -3 6 -1 10 4 10 6 0 11 -4 11 -10z m13 -83
c-4 -6 -10 -1 -15 12 -4 13 -5 28 -1 34 4 6 10 1 15 -12 4 -13 5 -28 1 -34z
m26 -66 c11 -27 21 -58 21 -68 0 -11 4 -23 10 -29 5 -5 16 -27 24 -49 8 -22
15 -33 15 -25 1 8 9 20 20 27 16 10 20 7 31 -27 17 -52 7 -75 -13 -30 -9 19
-16 31 -17 27 -1 -21 34 -124 50 -147 36 -51 44 -135 16 -155 -23 -17 -52 -8
-53 17 -1 12 -6 24 -12 27 -5 4 -9 13 -8 21 3 31 -15 116 -29 142 -8 15 -39
52 -69 82 -54 53 -54 54 -50 107 4 64 11 85 32 93 12 5 13 9 3 21 -7 8 -8 15
-2 15 5 0 19 -22 31 -49z m4676 0 c-15 -31 -28 -42 -20 -18 19 52 28 70 32 60
2 -6 -3 -25 -12 -42z m-5050 19 c10 -11 14 -20 8 -20 -5 0 -18 9 -28 20 -10
11 -14 20 -8 20 5 0 18 -9 28 -20z m215 -53 c0 -5 -4 -5 -10 -2 -5 3 -10 14
-10 23 0 15 2 15 10 2 5 -8 10 -19 10 -23z m-400 -9 c0 -6 -6 -5 -15 2 -8 7
-15 14 -15 16 0 2 7 1 15 -2 8 -4 15 -11 15 -16z m65 12 c3 -5 1 -10 -4 -10
-6 0 -11 5 -11 10 0 6 2 10 4 10 3 0 8 -4 11 -10z m33 -65 c17 -14 35 -25 41
-25 6 0 11 -4 11 -9 0 -5 -10 -6 -22 -2 -24 7 -98 50 -98 57 0 13 43 0 68 -21z
m540 -30 c-2 -12 -7 -7 -15 16 -12 30 -11 32 3 17 9 -8 14 -23 12 -33z m181
-104 c1 -35 -5 -22 -12 24 -5 28 -4 34 3 20 5 -11 9 -31 9 -44z m-247 -76 l5
-50 -23 50 c-24 52 -29 76 -17 89 11 11 30 -35 35 -89z m1622 86 c3 -5 -1 -12
-10 -15 -27 -11 -37 -7 -24 9 14 17 26 19 34 6z m403 -393 c-3 -8 -6 -5 -6 6
-1 11 2 17 5 13 3 -3 4 -12 1 -19z m3213 -60 c0 -5 22 -30 48 -56 63 -63 96
-109 112 -157 7 -22 16 -49 21 -60 4 -11 10 -33 13 -50 3 -16 10 -54 17 -84
12 -53 12 -55 -14 -77 -15 -13 -27 -30 -27 -39 0 -46 -68 -18 -96 40 -17 36
-43 62 -31 32 10 -27 0 -20 -21 16 -15 25 -19 45 -15 97 4 61 3 63 -11 40
l-14 -25 -8 30 c-4 17 -8 45 -8 63 0 17 -3 32 -6 32 -4 0 -7 6 -8 13 -7 78
-10 138 -6 124 3 -10 12 -16 19 -14 7 3 18 0 24 -6 8 -8 11 -8 11 1 0 7 -4 12
-9 12 -5 0 -9 15 -8 33 0 17 -3 41 -8 52 -8 18 -7 19 8 6 9 -7 17 -18 17 -23z
m-506 -413 c-4 -8 -11 -15 -16 -15 -6 0 -5 6 2 15 7 8 14 15 16 15 2 0 1 -7
-2 -15z m-34 -45 c-8 -5 -17 -7 -19 -4 -3 3 1 9 9 14 8 5 17 7 19 4 3 -3 -1
-9 -9 -14z m387 -57 c-3 -14 2 -23 14 -26 27 -7 34 -35 15 -56 -9 -10 -16 -22
-16 -27 0 -4 7 2 16 15 22 30 34 12 29 -43 -3 -25 2 -50 10 -63 9 -12 16 -44
18 -70 2 -43 0 -48 -20 -51 -13 -2 -38 9 -60 26 -21 16 -56 41 -77 57 l-39 28
22 18 c11 9 17 19 11 21 -12 4 27 129 44 140 6 4 7 8 3 8 -4 0 -3 9 4 21 8 15
8 24 0 32 -6 6 -11 18 -11 27 0 10 6 8 20 -10 11 -14 19 -35 17 -47z m223 2
c0 -5 -5 -3 -10 5 -5 8 -10 20 -10 25 0 6 5 3 10 -5 5 -8 10 -19 10 -25z
m-304 -96 c-9 -27 -14 -36 -15 -22 -1 24 17 78 24 71 3 -2 -1 -24 -9 -49z
m-276 32 c0 -6 -4 -13 -10 -16 -5 -3 -10 1 -10 9 0 9 5 16 10 16 6 0 10 -4 10
-9z m425 -301 c-6 -9 -9 -9 -16 1 -10 17 0 34 13 21 6 -6 7 -16 3 -22z m18
-72 c6 -22 5 -22 -8 -4 -10 13 -15 15 -15 6 0 -7 -2 -11 -5 -8 -8 8 6 39 15
33 4 -3 10 -15 13 -27z m-1419 -42 c-4 -10 3 -16 23 -19 l28 -4 -31 -2 c-33
-1 -60 -23 -50 -39 7 -12 -53 -59 -88 -68 -14 -3 -29 -11 -33 -17 -8 -13 39
-1 91 24 57 27 100 7 64 -29 -7 -7 -8 -12 -4 -12 5 0 2 -10 -6 -22 -8 -13 -21
-41 -27 -63 -23 -73 -69 -160 -107 -202 -22 -24 -52 -60 -69 -82 -18 -24 -42
-42 -60 -47 -16 -3 -42 -20 -58 -36 -21 -20 -35 -27 -51 -23 -16 5 -18 4 -6
-4 12 -8 3 -15 -40 -35 -72 -33 -143 -27 -121 11 12 21 61 26 88 8 28 -19 30
-19 36 4 3 14 0 17 -14 14 -21 -6 -29 16 -32 87 -2 41 -4 45 -35 51 -40 8 -54
19 -24 19 20 0 22 5 22 56 0 46 4 59 23 75 18 15 19 20 8 28 -18 12 -9 36 15
36 12 0 20 8 22 23 3 22 5 22 16 6 15 -20 36 -11 36 17 0 13 7 20 23 21 12 0
28 2 35 2 8 1 19 9 26 18 7 9 30 20 51 23 49 9 66 18 101 50 15 14 31 25 35
25 14 0 79 70 79 85 0 8 8 19 18 24 22 13 22 13 16 -3z m1403 -28 c-3 -8 -6
-5 -6 6 -1 11 2 17 5 13 3 -3 4 -12 1 -19z m-1024 5 c-7 -2 -19 -2 -25 0 -7 3
-2 5 12 5 14 0 19 -2 13 -5z m-348 -42 c-3 -6 -14 -11 -23 -11 -13 0 -13 2 4
14 21 15 30 14 19 -3z m-1762 -28 c-7 -2 -19 -2 -25 0 -7 3 -2 5 12 5 14 0 19
-2 13 -5z m3331 -246 c14 -17 23 -34 20 -36 -2 -3 -14 8 -27 24 -12 15 -31 36
-42 46 -71 61 -76 67 -27 34 28 -20 63 -51 76 -68z m-423 17 c-5 -16 -10 -21
-10 -12 -1 18 10 51 15 45 2 -1 -1 -16 -5 -33z m74 4 c-2 -18 -7 -55 -10 -83
-9 -82 -84 -275 -108 -275 -4 0 -7 3 -5 8 2 4 12 25 22 47 10 22 25 53 32 68
8 16 14 37 14 48 0 10 4 19 10 19 5 0 7 6 4 13 -2 7 2 30 11 50 8 20 15 59 15
87 0 27 4 50 9 50 6 0 8 -15 6 -32z m230 13 c3 -5 1 -12 -5 -16 -5 -3 -10 1
-10 9 0 18 6 21 15 7z m-2198 -17 c-3 -3 -12 -4 -19 -1 -8 3 -5 6 6 6 11 1 17
-2 13 -5z m201 -72 c2 -7 -6 -12 -17 -12 -21 0 -27 11 -14 24 9 9 26 2 31 -12z
m1192 -82 c0 -5 -7 -10 -16 -10 -8 0 -12 5 -9 10 3 6 10 10 16 10 5 0 9 -4 9
-10z m426 -48 c-18 -16 -18 -16 -6 6 6 13 14 21 18 18 3 -4 -2 -14 -12 -24z
m-406 -12 c0 -5 -4 -10 -10 -10 -5 0 -10 5 -10 10 0 6 5 10 10 10 6 0 10 -4
10 -10z m886 -122 c-9 -12 -16 -19 -16 -15 0 11 24 47 28 42 2 -2 -3 -14 -12
-27z m-469 -74 c-3 -3 -12 -4 -19 -1 -8 3 -5 6 6 6 11 1 17 -2 13 -5z m413
-18 c0 -2 -7 -6 -15 -10 -8 -3 -15 -1 -15 4 0 6 7 10 15 10 8 0 15 -2 15 -4z
m-2780 -91 c0 -8 -4 -15 -10 -15 -5 0 -10 7 -10 15 0 8 5 15 10 15 6 0 10 -7
10 -15z m1307 -31 c-3 -3 -12 -4 -19 -1 -8 3 -5 6 6 6 11 1 17 -2 13 -5z
m1376 -29 c-3 -9 -8 -14 -10 -11 -3 3 -2 9 2 15 9 16 15 13 8 -4z m-1618 -26
c11 -17 0 -20 -21 -4 -17 13 -17 14 -2 15 9 0 20 -5 23 -11z m-1305 -220 c0
-6 9 -23 20 -39 11 -15 17 -30 13 -33 -10 -11 -23 3 -38 40 -18 42 -18 43 -5
43 6 0 10 -5 10 -11z m400 -324 c13 -14 21 -25 18 -25 -2 0 -15 11 -28 25 -13
14 -21 25 -18 25 2 0 15 -11 28 -25z m70 -60 c7 -9 8 -15 2 -15 -5 0 -12 7
-16 15 -3 8 -4 15 -2 15 2 0 9 -7 16 -15z m100 -103 c0 -3 -9 3 -20 13 -11 10
-20 23 -20 28 0 6 9 0 20 -13 11 -13 20 -25 20 -28z m51 -29 c13 -17 13 -17
-6 -3 -11 8 -22 16 -24 17 -2 2 0 3 6 3 6 0 17 -8 24 -17z m199 -33 c8 -5 11
-10 5 -10 -5 0 -17 5 -25 10 -8 5 -10 10 -5 10 6 0 17 -5 25 -10z m2317 -132
c11 -13 44 -59 73 -103 28 -44 62 -91 73 -105 l22 -25 -30 25 c-16 14 -33 30
-37 35 -7 11 -27 39 -94 133 -43 61 -48 84 -7 40z m273 -350 c0 -6 -7 -5 -15
2 -8 7 -15 17 -15 22 0 6 7 5 15 -2 8 -7 15 -17 15 -22z m130 -238 c46 -74 90
-142 99 -151 16 -17 152 -239 240 -389 23 -41 51 -88 61 -105 9 -16 28 -48 40
-70 l23 -40 -24 27 c-46 51 -59 68 -59 79 0 5 -4 8 -9 4 -5 -3 -12 4 -16 15
-3 11 -11 20 -16 20 -5 0 -9 5 -9 10 0 6 -16 36 -35 66 -20 30 -33 59 -30 65
4 5 2 9 -3 9 -5 0 -12 8 -15 18 -4 9 -23 46 -43 82 -20 36 -50 91 -66 122 -17
32 -45 75 -62 95 -31 37 -125 191 -161 263 -30 60 -2 20 85 -120z m1187 -726
c-3 -3 -12 -4 -19 -1 -8 3 -5 6 6 6 11 1 17 -2 13 -5z m-160 -10 c-3 -3 -12
-4 -19 -1 -8 3 -5 6 6 6 11 1 17 -2 13 -5z m147 -30 c26 -9 45 -18 43 -20 -2
-3 -25 3 -51 11 -26 9 -53 14 -59 11 -7 -2 -4 -5 5 -5 9 -1 19 -5 22 -10 3 -4
-6 -6 -19 -3 -29 5 -34 32 -7 32 10 0 40 -7 66 -16z m131 -62 c-3 -3 -11 0
-18 7 -9 10 -8 11 6 5 10 -3 15 -9 12 -12z" />
        <path d="M4332 5459 c2 -6 8 -10 13 -10 5 0 11 4 13 10 2 6 -4 11 -13 11 -9 0
-15 -5 -13 -11z" />
        <path d="M1415 5910 c3 -5 11 -10 16 -10 6 0 7 5 4 10 -3 6 -11 10 -16 10 -6
0 -7 -4 -4 -10z" />
        <path d="M1447 5853 c-3 -5 6 -28 19 -53 20 -37 23 -40 18 -15 -14 62 -27 85
-37 68z" />
        <path d="M1441 5704 c0 -11 3 -14 6 -6 3 7 2 16 -1 19 -3 4 -6 -2 -5 -13z" />
        <path d="M6678 5135 c2 -27 8 -57 13 -65 14 -25 10 52 -5 85 -13 29 -13 28 -8
-20z" />
        <path
            d="M6800 4898 c0 -15 4 -30 10 -33 5 -3 8 -19 6 -35 -2 -17 1 -30 5 -30
13 0 11 40 -6 85 -12 35 -14 37 -15 13z" />
        <path d="M6514 4609 c-19 -22 -19 -22 4 -8 12 8 22 17 22 21 0 12 -6 9 -26
-13z" />
        <path d="M6470 9182 c0 -12 19 -26 26 -19 2 2 -2 10 -11 17 -9 8 -15 8 -15 2z" />
        <path d="M6550 9142 c0 -12 19 -26 26 -19 2 2 -2 10 -11 17 -9 8 -15 8 -15 2z" />
        <path d="M6760 9120 c0 -5 5 -10 11 -10 5 0 7 5 4 10 -3 6 -8 10 -11 10 -2 0
-4 -4 -4 -10z" />
        <path d="M6792 9070 c0 -14 2 -19 5 -12 2 6 2 18 0 25 -3 6 -5 1 -5 -13z" />
        <path d="M6680 9044 c0 -11 7 -29 16 -40 15 -18 15 -18 9 11 -8 37 -25 57 -25
29z" />
        <path d="M6600 9036 c0 -16 40 -59 48 -52 7 7 -22 59 -35 64 -7 2 -13 -3 -13
-12z" />
        <path d="M6578 9003 c7 -3 16 -2 19 1 4 3 -2 6 -13 5 -11 0 -14 -3 -6 -6z" />
        <path
            d="M6468 8928 c-3 -8 0 -22 8 -33 14 -18 14 -18 14 1 0 10 -4 25 -9 32
-7 11 -9 11 -13 0z" />
        <path d="M6672 8920 c0 -14 2 -19 5 -12 2 6 2 18 0 25 -3 6 -5 1 -5 -13z" />
        <path d="M2640 6170 c0 -5 5 -10 10 -10 6 0 10 5 10 10 0 6 -4 10 -10 10 -5 0
-10 -4 -10 -10z" />
        <path d="M1130 6031 c0 -5 7 -12 16 -15 24 -9 28 -7 14 9 -14 17 -30 20 -30 6z" />
        <path d="M2950 5860 c0 -6 7 -10 15 -10 8 0 15 2 15 4 0 2 -7 6 -15 10 -8 3
-15 1 -15 -4z" />
        <path d="M897 5735 c10 -13 22 -25 27 -25 5 0 -1 11 -14 25 -30 32 -36 32 -13
0z" />
        <path d="M3192 5544 c-7 -8 -8 -14 -3 -14 10 0 25 19 20 25 -2 1 -10 -3 -17
-11z" />
        <path d="M3521 5294 c0 -11 3 -14 6 -6 3 7 2 16 -1 19 -3 4 -6 -2 -5 -13z" />
        <path
            d="M1283 5121 c3 -12 0 -27 -7 -34 -7 -6 -15 -20 -19 -31 -5 -14 -4 -17
8 -12 8 3 15 1 15 -4 0 -10 39 -30 123 -61 32 -11 61 -27 64 -35 5 -15 33 -20
33 -6 0 4 -6 14 -12 22 -11 12 -10 12 4 1 15 -11 19 -11 24 4 7 17 8 17 22 -1
14 -18 14 -18 10 2 -4 17 -2 20 13 17 11 -3 19 -11 19 -17 0 -20 48 -56 75
-56 14 0 25 5 25 10 0 6 8 10 18 10 27 0 62 46 62 80 0 35 -7 37 -52 11 -26
-16 -48 -19 -107 -17 -46 2 -76 7 -79 14 -2 7 -9 12 -16 12 -6 0 -35 18 -64
40 -29 22 -70 42 -90 45 -20 3 -46 11 -56 17 -16 9 -18 7 -13 -11z m227 -121
c0 -5 -5 -10 -11 -10 -5 0 -7 5 -4 10 3 6 8 10 11 10 2 0 4 -4 4 -10z" />
        <path d="M1497 4878 c8 -44 13 -48 13 -10 0 17 -4 34 -10 37 -6 4 -7 -6 -3
-27z" />
        <path
            d="M1430 4576 c0 -11 19 -38 43 -60 51 -49 106 -66 212 -66 60 0 75 -3
75 -15 0 -8 -5 -15 -10 -15 -6 0 -16 -11 -22 -25 -6 -14 -17 -25 -25 -25 -21
0 -15 -21 7 -27 11 -3 20 -14 20 -24 0 -28 30 -36 46 -14 11 15 17 16 27 6 10
-10 8 -15 -8 -26 -39 -27 -45 -36 -45 -61 0 -26 0 -26 68 -18 75 8 107 17 128
39 9 8 24 15 35 15 10 0 19 5 19 10 0 6 13 10 29 10 29 0 42 14 33 38 -2 6
-11 12 -18 12 -8 0 -19 11 -24 25 -5 14 -14 25 -20 25 -6 0 -24 14 -42 30 -17
17 -34 30 -39 30 -54 0 -170 26 -203 46 -23 13 -61 33 -86 45 -25 11 -63 30
-85 42 -22 11 -41 20 -42 19 -2 -1 -5 -1 -8 -1 -3 1 -18 2 -35 3 -23 1 -30 -3
-30 -18z m450 -266 c0 -5 -9 -10 -20 -10 -11 0 -20 5 -20 10 0 6 9 10 20 10
11 0 20 -4 20 -10z" />
        <path
            d="M0 4089 l0 -444 363 -1 c201 0 415 -5 482 -12 66 -7 172 -15 235 -18
156 -8 191 -11 288 -23 57 -7 98 -7 129 -1 25 6 54 8 64 5 10 -4 29 1 41 9 12
9 35 16 50 16 16 0 28 3 28 8 0 4 17 8 37 10 20 1 48 10 61 20 14 9 31 22 39
27 9 7 16 6 22 -3 7 -11 9 -11 14 2 4 9 13 16 22 16 8 0 20 11 25 25 14 36 15
204 1 218 -6 6 -11 24 -11 41 0 16 -8 38 -17 48 -16 18 -16 20 12 44 17 14 25
23 19 20 -7 -3 -15 1 -18 10 -5 12 -14 15 -36 10 -22 -4 -30 -2 -30 9 0 8 -9
15 -20 15 -11 0 -20 -7 -20 -15 0 -8 -9 -15 -19 -15 -11 0 -21 -5 -23 -11 -2
-6 -18 4 -35 21 -34 35 -53 97 -53 173 0 42 -1 43 -43 55 -24 7 -63 13 -88 13
-48 -1 -306 22 -434 39 -44 5 -123 13 -175 16 -52 4 -99 10 -105 14 -5 5 -82
15 -170 24 -88 9 -182 21 -210 26 -27 5 -117 17 -200 26 -82 8 -167 18 -187
21 l-38 5 0 -443z m1765 -9 c3 -5 1 -10 -4 -10 -6 0 -11 5 -11 10 0 6 2 10 4
10 3 0 8 -4 11 -10z" />
        <path d="M1721 4224 c0 -11 3 -14 6 -6 3 7 2 16 -1 19 -3 4 -6 -2 -5 -13z" />
        <path
            d="M920 2394 c-25 -2 -171 -8 -325 -14 -318 -13 -355 -16 -355 -36 0
-11 -21 -13 -120 -7 -88 4 -120 3 -120 -5 0 -9 37 -12 124 -12 115 0 191 -12
246 -39 19 -10 179 -53 297 -80 81 -19 119 -22 307 -20 117 1 218 -1 222 -4 5
-3 61 -12 124 -21 121 -18 256 -57 302 -89 16 -10 40 -20 55 -23 16 -3 42 -11
58 -19 41 -19 202 -53 284 -61 l66 -6 -42 40 c-25 22 -43 49 -43 61 0 11 -4
21 -8 21 -5 0 -14 11 -20 24 -12 27 -42 43 -142 76 -114 37 -164 50 -200 50
-19 0 -60 7 -90 14 -80 20 -311 102 -319 113 -18 26 -184 47 -301 37z" />
        <path
            d="M3252 1179 c-37 -14 -37 -36 3 -84 38 -47 59 -54 91 -31 14 11 16 18
8 26 -8 8 -14 9 -18 1 -4 -6 -17 -11 -29 -11 -21 1 -21 1 -4 14 42 32 -2 104
-51 85z" />
        <path d="M8248 1093 c7 -3 16 -2 19 1 4 3 -2 6 -13 5 -11 0 -14 -3 -6 -6z" />
        <path
            d="M3365 1050 c-3 -5 -15 -10 -26 -10 -24 0 -25 -18 -1 -27 9 -4 21 -12
25 -20 4 -7 13 -13 20 -13 7 0 28 -16 47 -35 19 -19 40 -35 47 -35 7 0 13 -7
13 -15 0 -19 30 -19 56 -1 16 12 17 17 5 28 -11 10 -14 10 -18 1 -3 -7 -12
-13 -21 -13 -12 0 -13 3 -4 12 17 17 15 38 -3 38 -8 0 -15 -4 -15 -10 0 -5
-12 -10 -27 -10 l-28 0 25 20 c30 23 19 38 -15 20 -31 -16 -41 -9 -24 19 7 11
10 24 6 28 -5 4 -12 1 -17 -7 -9 -15 -40 -23 -40 -10 0 5 7 13 16 18 9 5 14
14 10 21 -9 14 -23 14 -31 1z" />
        <path
            d="M3570 885 c-7 -8 -19 -15 -26 -15 -8 0 -14 -4 -14 -10 0 -15 33 -12
56 4 14 11 16 18 8 26 -8 8 -14 7 -24 -5z" />
        <path
            d="M3615 850 c-3 -5 -15 -10 -26 -10 -10 0 -19 -7 -19 -15 0 -8 5 -15
10 -15 15 0 60 31 60 41 0 12 -17 11 -25 -1z" />
        <path
            d="M3655 810 c-3 -5 -15 -10 -26 -10 -10 0 -19 -7 -19 -15 0 -20 23 -19
51 3 14 12 18 21 11 26 -6 3 -13 2 -17 -4z" />
        <path
            d="M3690 770 c0 -5 -9 -10 -20 -10 -11 0 -20 -5 -20 -11 0 -18 55 -6 58
14 2 9 -1 17 -7 17 -6 0 -11 -4 -11 -10z" />
        <path
            d="M3720 732 c0 -7 -9 -12 -21 -12 -11 0 -17 -4 -14 -10 8 -12 25 -13
45 0 12 7 12 12 2 22 -9 9 -12 9 -12 0z" />
        <path
            d="M3755 680 c-3 -5 -16 -10 -28 -10 -15 0 -18 -3 -11 -10 12 -12 64 6
64 22 0 11 -17 10 -25 -2z" />
        <path d="M3773 628 c-20 -10 -32 -28 -18 -28 12 0 55 24 55 32 0 10 -9 9 -37
-4z" />
        <path d="M3803 580 c-20 -8 -33 -30 -18 -30 10 0 65 30 65 35 0 7 -22 5 -47
-5z" />
        <path
            d="M3833 530 c-15 -6 -23 -18 -23 -34 0 -13 -21 -73 -46 -132 -25 -60
-52 -129 -59 -154 -8 -25 -33 -81 -55 -125 -22 -44 -40 -81 -40 -82 0 -2 74
-3 165 -3 148 0 168 2 197 20 32 20 32 21 6 14 -24 -5 -28 -3 -28 15 0 13 7
21 18 22 13 0 14 2 2 6 -15 6 -30 23 -30 35 0 4 10 9 23 11 21 4 21 4 1 6 -31
2 -39 30 -11 41 l22 9 -22 0 c-13 1 -23 7 -23 15 0 7 10 21 23 30 22 16 22 16
0 6 -12 -5 -23 -10 -26 -10 -9 0 -3 36 7 42 8 5 7 8 -2 8 -12 0 -20 15 -36 67
-5 16 -2 23 11 26 14 4 13 5 -4 6 -16 1 -23 7 -23 21 0 12 10 25 23 31 21 9
21 9 -5 6 -33 -5 -47 21 -22 40 16 12 15 13 -9 13 -32 0 -37 25 -9 46 19 15 8
17 -25 4z" />
    </g>
</svg>